Fly_normalized_Motion_pl08
version=1
nRows=21
nColumns=43
inDegrees=yes
endheader
time		pelvis_tilt		pelvis_list		pelvis_rotation		pelvis_tx		pelvis_ty		pelvis_tz		hip_flexion_r		hip_adduction_r		hip_rotation_r		knee_angle_r		ankle_angle_r		subtalar_angle_r		mtp_angle_r		hip_flexion_l		hip_adduction_l		hip_rotation_l		knee_angle_l		ankle_angle_l		subtalar_angle_l		mtp_angle_l		lumbar_extension		lumbar_bending		lumbar_rotation		neck_flexion		neck_lateral_bending		neck_rotation		arm_flex_r		arm_add_r		arm_rot_r		elbow_flex_r		pro_sup_r		wrist_flex_r		wrist_dev_r		hand_finger_flex_r		arm_flex_l		arm_add_l		arm_rot_l		elbow_flex_l		pro_sup_l		wrist_flex_l		wrist_dev_l		hand_finger_flex_l		
0.242500		1.146484		-14.926439		88.627374		0.055653		1.802202		1.513246		46.308928		-1.584421		5.656002		-128.698064		-1.254697		2.803114		22.899133		61.773263		-7.870014		9.068915		-126.027755		-16.627422		10.310988		29.173434		-32.979223		-0.238472		5.182933		23.106461		2.896238		-5.907353		96.675046		-22.545689		18.484495		66.666380		119.705360		0.163298		-4.460714		6.788721		98.953431		-15.911898		32.047832		45.584696		120.376311		-12.462448		0.314762		9.838293		
0.246641		1.266377		-14.621615		88.804047		0.055680		1.802787		1.503700		45.616026		-1.354779		5.537791		-127.825544		-4.176341		2.047135		22.657560		61.658608		-7.933721		8.832632		-125.301542		-14.978725		9.833973		29.369713		-32.954407		-0.174855		5.206270		22.409790		3.118639		-6.112152		96.035975		-22.805339		18.569963		66.355398		120.248706		0.428521		-4.470447		6.693957		98.490059		-16.010901		32.611809		45.506422		120.555052		-12.363252		0.535799		9.477996		
0.250783		1.337869		-14.318477		88.971617		0.055714		1.803256		1.494240		44.970027		-1.214574		5.304990		-126.879701		-7.304682		0.482633		22.080582		61.604857		-8.011501		8.522872		-124.511692		-13.820906		9.102626		29.292969		-32.958487		-0.155458		5.200339		21.790980		3.285552		-6.300664		95.353431		-23.090732		18.623639		66.130350		121.125120		0.751734		-4.620154		6.430060		98.057175		-16.136222		33.240960		45.416688		120.812369		-12.287246		0.805925		8.789091		
0.254924		1.417496		-13.947183		89.122889		0.055550		1.803643		1.484913		44.347183		-1.035047		5.382551		-125.872577		-10.584868		0.379552		21.438106		61.529305		-8.045317		8.262107		-123.691045		-13.070367		8.441820		29.212828		-33.049705		-0.103114		5.212229		21.091947		3.449804		-6.501292		94.788763		-23.384153		18.878869		65.741891		121.473178		0.878390		-4.517087		6.345012		97.572786		-16.249162		33.635996		45.287432		121.009946		-12.177291		0.954225		8.614461		
0.259066		1.432584		-13.667141		89.185885		0.055377		1.803837		1.475909		44.011651		-0.840929		5.368019		-124.834506		-14.545260		-1.568702		20.081341		61.614519		-8.048026		7.821426		-122.818323		-12.786261		6.756772		28.478560		-33.108455		-0.135558		5.275345		20.720550		3.529915		-6.673618		94.286460		-23.678745		19.132879		65.314677		122.317594		1.004301		-4.550650		5.962702		97.157334		-16.334790		34.106459		45.078579		121.503413		-12.056628		1.203935		7.965919		
0.263207		1.460611		-13.357901		89.268383		0.055124		1.803934		1.466975		43.736252		-0.711623		5.442605		-123.756906		-18.507554		-2.726973		18.621036		61.718969		-8.086833		7.410159		-121.912721		-12.714085		4.980349		27.565088		-33.221779		-0.128584		5.320756		20.198658		3.557212		-6.815244		93.771532		-24.044252		19.483894		65.003131		123.023242		1.169535		-4.560539		5.638556		96.640568		-16.494724		34.398146		44.979214		122.033626		-11.867371		1.269590		7.459952		
0.267348		1.486107		-13.079631		89.291903		0.054864		1.803863		1.458295		43.665407		-0.520355		5.668806		-122.696517		-22.563958		-3.448242		17.097952		61.884411		-8.153122		6.985884		-120.970947		-12.772568		2.928672		26.636080		-33.348501		-0.140690		5.404964		19.819915		3.529353		-6.945419		93.361722		-24.405195		19.929883		64.595079		123.738976		1.313771		-4.589006		5.394515		96.122966		-16.656958		34.589549		44.821990		122.677085		-11.761300		1.198212		7.129878		
0.271490		1.535901		-12.753918		89.284082		0.054542		1.803628		1.449788		43.643660		-0.276259		6.069235		-121.655159		-26.205407		-3.136451		15.825033		62.034247		-8.269425		6.668679		-120.070849		-12.635232		1.381686		26.002713		-33.563635		-0.133256		5.524790		19.589629		3.499594		-7.046289		93.072847		-24.734548		20.422198		64.055647		124.334921		1.518763		-4.633647		5.320533		95.632888		-16.820381		34.745896		44.583578		123.202103		-11.665732		1.110985		7.030649		
0.275631		1.583629		-12.488297		89.292006		0.054150		1.803249		1.441432		43.732853		-0.060154		6.377354		-120.694088		-28.922441		-2.936838		14.376021		62.272668		-8.328816		6.322998		-119.122242		-12.710540		-0.835172		25.121821		-33.756455		-0.102778		5.632313		19.344617		3.386698		-7.131688		92.766450		-25.142735		20.986224		63.595555		125.190363		1.639471		-4.957005		5.311623		95.032874		-17.031624		34.719093		44.476104		123.913800		-11.678791		0.884717		7.090255		
0.279773		1.685290		-12.229992		89.356049		0.053719		1.802747		1.433199		43.787621		0.145877		6.513574		-119.821272		-30.103569		-2.608409		13.011362		62.568198		-8.397383		6.087536		-118.198329		-12.635825		-2.757802		24.138414		-33.981585		-0.008305		5.715835		19.086786		3.367190		-7.199723		92.430657		-25.533220		21.472351		63.159943		126.052156		1.756707		-5.389149		5.436185		94.377515		-17.263752		34.516095		44.474222		124.609774		-11.635707		0.662437		7.356860		
0.283914		1.680096		-11.991075		89.335622		0.053222		1.802086		1.425195		43.907146		0.251221		6.699106		-119.078168		-29.924578		-2.138260		12.756932		62.865292		-8.400911		5.811669		-117.252157		-12.566307		-4.375429		23.607386		-34.240323		-0.012998		5.786176		19.168488		3.153497		-7.209980		92.184971		-25.894102		22.077321		62.637182		126.536423		1.776059		-5.720997		5.577840		93.800813		-17.483435		34.338816		44.381866		124.877276		-11.542114		0.599637		7.645651		
0.288056		1.684306		-11.738091		89.343495		0.052684		1.801393		1.417274		44.043992		0.320527		6.776803		-118.346268		-29.166465		-1.647338		12.669197		63.173965		-8.403899		5.512415		-116.293719		-12.618249		-6.127141		22.780023		-34.546241		0.004595		5.819295		19.162890		2.977235		-7.194461		91.877800		-26.216096		22.599640		62.142314		127.016340		1.681561		-6.100503		5.804433		93.161825		-17.736655		34.002089		44.386607		125.228487		-11.396450		0.520782		8.101056		
0.292197		1.754082		-11.624275		89.368625		0.052183		1.800356		1.409462		44.276117		0.386371		6.621976		-117.773737		-26.545503		-1.271942		13.077600		63.660684		-8.435841		5.181449		-115.392516		-12.490918		-8.422765		21.077566		-34.709514		0.083082		5.820829		19.146658		2.933500		-7.130506		91.471449		-26.467096		23.098096		61.615329		127.517794		1.411895		-6.580171		6.350624		92.298509		-18.071924		33.237757		44.615784		125.849059		-11.112253		0.393814		9.036127		
0.296338		1.753000		-11.414013		89.365552		0.051649		1.799328		1.401705		44.470650		0.422972		6.484147		-117.223233		-23.993745		-1.239321		13.939892		64.024745		-8.378264		4.875081		-114.449420		-12.415356		-10.052860		19.374879		-35.024504		0.089463		5.819437		19.247264		2.794542		-7.061919		91.043951		-26.722245		23.482775		61.189493		127.550569		1.257755		-6.653247		6.850571		91.522987		-18.336817		32.522920		44.730020		126.218614		-10.897965		0.336460		9.776153		
0.300480		1.772556		-11.380164		89.335090		0.051249		1.797940		1.394099		44.938315		0.510235		6.255952		-116.695430		-21.687292		-1.698917		14.976215		64.577173		-8.376934		4.616183		-113.531775		-11.937859		-11.152274		17.407247		-35.160102		0.074498		5.858935		19.424527		2.775790		-7.009563		90.518050		-27.066840		23.891751		60.846479		127.328986		1.145932		-6.584080		7.254216		90.728069		-18.628942		31.990752		44.814819		126.579282		-10.803514		0.262592		10.303075		
0.304621		1.811097		-11.269043		89.265582		0.050858		1.796492		1.386528		45.406030		0.659854		6.101132		-116.205262		-19.861296		-2.092693		17.264236		65.046308		-8.386497		4.288389		-112.604422		-11.308820		-12.536716		11.631295		-35.407402		0.059104		5.928158		19.535322		2.748599		-6.938705		90.082538		-27.454919		24.546219		60.422973		126.630945		0.542294		-6.369512		8.247679		89.757374		-18.825755		30.802880		45.024663		127.742909		-10.681969		0.147881		11.563186		
0.308763		1.819838		-11.143330		89.207167		0.050562		1.794852		1.378990		45.898512		0.783696		5.863511		-115.802388		-17.949328		-3.036815		17.483406		65.480422		-8.381976		4.097684		-111.613814		-11.046268		-13.270952		11.399281		-35.673191		0.013206		5.979044		19.683422		2.680742		-6.900163		89.533759		-27.826336		24.883563		60.088701		126.613808		0.771559		-6.336018		8.353524		88.990471		-19.196061		30.541316		45.036602		127.496300		-10.853162		0.115776		11.467273		
0.312904		1.829363		-10.903367		89.153298		0.050281		1.793198		1.371490		46.425675		0.910903		5.711018		-115.454684		-16.999063		-3.663843		17.526485		65.775500		-8.353101		3.991870		-110.560163		-10.911617		-13.681508		11.255173		-36.076294		-0.038830		6.042684		19.831314		2.635931		-6.877819		88.968036		-28.189021		25.142572		59.705114		126.605199		0.918406		-6.297793		8.405814		88.313896		-19.541401		30.408825		44.931350		127.389721		-10.938169		0.150285		11.411603		
0.317045		1.787585		-10.764163		89.050637		0.049833		1.791317		1.364038		47.046703		0.963943		5.560360		-115.145531		-15.610240		-4.861875		17.496650		66.134405		-8.312926		3.770489		-109.476872		-10.697856		-14.265593		11.072130		-36.397066		-0.120235		6.111005		20.039141		2.562452		-6.842231		88.391346		-28.615676		25.490209		59.367342		126.567556		1.085438		-6.335645		8.453666		87.477951		-19.937210		30.137990		44.943564		127.253955		-11.137647		0.210116		11.302369		
0.321187		1.795551		-10.562103		89.035598		0.049206		1.789436		1.356545		47.642787		0.953191		5.139211		-114.762582		-15.035129		-7.563808		16.428503		66.446387		-8.170151		3.618234		-108.356080		-10.844412		-15.360182		10.427533		-36.828560		-0.060903		6.100162		20.362181		2.331110		-6.767714		87.817820		-28.919957		25.790555		58.965022		126.315343		1.065128		-6.533687		8.328334		86.385452		-20.366613		29.402586		45.180745		127.131385		-11.460557		0.527714		11.097117		
0.325328		1.586340		-10.404498		88.813464		0.048541		1.787382		1.349072		48.431742		0.895398		5.088906		-114.418067		-14.858349		-10.247331		13.842353		66.696241		-8.083979		3.217510		-107.198056		-10.749668		-15.625386		9.559141		-37.211966		-0.297321		6.128297		20.644743		2.155820		-6.652449		86.968892		-29.170026		25.634034		58.642565		126.023139		0.938810		-6.741473		7.946481		85.342477		-20.741152		28.683609		45.363524		127.442409		-11.275571		0.738102		11.132163		
